<?xml version="1.0" encoding="UTF-8"?><svg xmlns="http://www.w3.org/2000/svg" xmlns:xlink="http://www.w3.org/1999/xlink" width="375pt" zoomAndPan="magnify" viewBox="0 0 375 374.999991" height="374.999991pt" preserveAspectRatio="xMidYMid meet" version="1.2"><g xml:id="surface1" id="surface1"><rect x="0" width="375" y="0" height="374.999991" style="fill:rgb(100%,100%,100%);fill-opacity:1;stroke:none;"/><rect x="0" width="375" y="0" height="374.999991" style="fill:rgb(100%,100%,100%);fill-opacity:1;stroke:none;"/><rect x="0" width="375" y="0" height="374.999991" style="fill:rgb(100%,100%,100%);fill-opacity:1;stroke:none;"/><path style=" stroke:none;fill-rule:nonzero;fill:rgb(26.269531%,50.979614%,2.349854%);fill-opacity:1;" d="M 222.78125 230.367188 C 214.359375 188.035156 172.59375 143.21875 155.023438 125.917969 C 153.703125 124.617188 151.898438 123.902344 149.941406 123.902344 C 146.882812 123.902344 144.074219 125.675781 142.957031 128.316406 C 137.335938 141.59375 123.820312 176.164062 119.679688 210.335938 C 119.554688 211.371094 120.171875 212.34375 121.15625 212.675781 C 142.746094 219.941406 160.195312 228.863281 173.015625 239.195312 C 194.757812 256.71875 208.308594 274.175781 213.292969 291.078125 C 213.539062 291.902344 214.242188 292.511719 215.097656 292.628906 C 215.199219 292.644531 215.300781 292.652344 215.402344 292.652344 C 216.148438 292.652344 216.847656 292.269531 217.253906 291.628906 C 226.195312 277.484375 228.054688 256.871094 222.78125 230.367188 "/><path style=" stroke:none;fill-rule:nonzero;fill:rgb(100%,100%,100%);fill-opacity:1;" d="M 174.757812 240.074219 C 174.757812 240.074219 174.632812 239.472656 174.410156 238.414062 C 174.1875 237.351562 173.875 235.878906 173.457031 234.085938 C 172.640625 230.503906 171.4375 225.753906 170.058594 221.042969 C 168.683594 216.332031 167.121094 211.667969 165.851562 208.203125 C 165.222656 206.46875 164.675781 205.03125 164.277344 204.027344 C 163.878906 203.023438 163.660156 202.449219 163.660156 202.449219 L 163.65625 202.445312 C 163.59375 202.285156 163.671875 202.101562 163.835938 202.039062 C 163.988281 201.976562 164.15625 202.046875 164.230469 202.1875 C 164.230469 202.1875 164.511719 202.738281 165 203.707031 C 165.488281 204.671875 166.175781 206.054688 166.972656 207.734375 C 168.574219 211.082031 170.589844 215.613281 172.425781 220.226562 C 174.269531 224.835938 175.9375 229.519531 177.109375 233.0625 C 177.699219 234.824219 178.175781 236.328125 178.496094 237.359375 C 178.816406 238.390625 178.996094 238.976562 178.996094 238.976562 C 179.355469 240.136719 178.710938 241.367188 177.550781 241.726562 C 176.394531 242.085938 175.164062 241.4375 174.804688 240.28125 C 174.78125 240.214844 174.765625 240.144531 174.75 240.078125 "/><path style=" stroke:none;fill-rule:nonzero;fill:rgb(38.038635%,74.119568%,7.058716%);fill-opacity:1;" d="M 218.691406 294.523438 C 214.660156 275.246094 200.21875 255.480469 175.773438 235.777344 C 157.429688 220.996094 130.460938 209.234375 95.613281 200.808594 C 67.1875 193.9375 40.628906 191.074219 27.328125 189.984375 C 24.417969 189.746094 21.535156 191.144531 19.695312 193.625 C 17.996094 195.921875 17.464844 198.699219 18.242188 201.25 C 22.132812 214.007812 30.5625 239.347656 43.3125 265.660156 C 58.941406 297.914062 76.167969 321.761719 94.507812 336.542969 C 118.769531 356.09375 141.003906 366.007812 160.59375 366.007812 C 178.101562 366.007812 193.238281 358.242188 205.582031 342.933594 C 217.824219 327.753906 222.230469 311.472656 218.6875 294.527344 "/><path style=" stroke:none;fill-rule:nonzero;fill:rgb(100%,100%,100%);fill-opacity:1;" d="M 206.828125 341.34375 C 206.675781 341.15625 206.492188 340.933594 206.273438 340.660156 C 205.605469 339.855469 204.628906 338.683594 203.359375 337.21875 C 202.09375 335.75 200.535156 333.988281 198.726562 331.992188 C 196.917969 329.992188 194.839844 327.777344 192.554688 325.378906 C 190.253906 323 187.75 320.429688 185.035156 317.78125 C 182.335938 315.113281 179.433594 312.367188 176.398438 309.558594 C 173.351562 306.765625 170.179688 303.902344 166.878906 301.085938 C 163.597656 298.25 160.191406 295.453125 156.761719 292.691406 C 155.027344 291.332031 153.292969 289.976562 151.566406 288.625 C 149.808594 287.308594 148.082031 285.972656 146.332031 284.691406 C 142.839844 282.125 139.359375 279.660156 135.941406 277.347656 C 134.222656 276.207031 132.554688 275.050781 130.882812 273.984375 C 129.207031 272.917969 127.578125 271.859375 125.976562 270.859375 C 124.363281 269.875 122.792969 268.921875 121.277344 267.992188 C 119.746094 267.082031 118.253906 266.238281 116.828125 265.40625 C 115.410156 264.570312 114.019531 263.816406 112.699219 263.097656 C 111.378906 262.382812 110.140625 261.6875 108.953125 261.066406 C 106.566406 259.847656 104.503906 258.757812 102.777344 257.910156 C 99.3125 256.246094 97.335938 255.296875 97.335938 255.296875 C 97.179688 255.222656 96.992188 255.285156 96.914062 255.4375 C 96.832031 255.59375 96.894531 255.789062 97.050781 255.871094 L 97.058594 255.878906 C 97.058594 255.878906 99.007812 256.878906 102.414062 258.632812 C 104.109375 259.519531 106.136719 260.664062 108.480469 261.941406 C 109.644531 262.59375 110.863281 263.320312 112.15625 264.070312 C 113.453125 264.820312 114.8125 265.605469 116.203125 266.480469 C 117.601562 267.34375 119.066406 268.226562 120.558594 269.171875 C 122.042969 270.136719 123.578125 271.128906 125.160156 272.152344 C 126.726562 273.191406 128.316406 274.285156 129.953125 275.390625 C 131.585938 276.496094 133.214844 277.691406 134.890625 278.871094 C 138.222656 281.265625 141.617188 283.808594 145.015625 286.449219 C 146.714844 287.769531 148.398438 289.144531 150.101562 290.496094 C 151.78125 291.882812 153.464844 293.277344 155.148438 294.671875 C 158.480469 297.507812 161.785156 300.375 164.960938 303.277344 C 168.160156 306.160156 171.222656 309.085938 174.171875 311.929688 C 177.101562 314.796875 179.902344 317.597656 182.503906 320.308594 C 185.117188 323.003906 187.527344 325.613281 189.738281 328.03125 C 191.929688 330.460938 193.925781 332.703125 195.652344 334.726562 C 197.386719 336.742188 198.875 338.519531 200.078125 339.996094 C 201.285156 341.46875 202.210938 342.640625 202.835938 343.441406 C 203.445312 344.238281 203.773438 344.664062 203.773438 344.664062 L 203.804688 344.707031 C 203.816406 344.71875 203.828125 344.734375 203.835938 344.746094 C 203.875 344.792969 203.917969 344.828125 203.960938 344.867188 C 204.503906 344.234375 205.046875 343.589844 205.582031 342.925781 C 206.003906 342.398438 206.417969 341.871094 206.824219 341.34375 "/><path style=" stroke:none;fill-rule:nonzero;fill:rgb(0%,0%,0%);fill-opacity:1;" d="M 268.167969 113.085938 C 265.140625 113.085938 262.683594 110.632812 262.683594 107.601562 L 262.683594 55.503906 C 262.683594 35.847656 246.683594 19.859375 227.023438 19.859375 C 207.359375 19.859375 191.363281 35.847656 191.363281 55.503906 L 191.363281 107.601562 C 191.363281 110.632812 188.90625 113.085938 185.878906 113.085938 C 182.847656 113.085938 180.390625 110.632812 180.390625 107.601562 L 180.390625 55.503906 C 180.390625 29.800781 201.308594 8.890625 227.023438 8.890625 C 252.734375 8.890625 273.65625 29.800781 273.65625 55.503906 L 273.65625 107.601562 C 273.65625 110.632812 271.195312 113.085938 268.167969 113.085938 "/><path style=" stroke:none;fill-rule:nonzero;fill:rgb(97.648621%,53.329468%,12.939453%);fill-opacity:1;" d="M 356.164062 310.804688 L 332.066406 113.382812 C 329.585938 93.046875 312.261719 77.714844 291.769531 77.714844 L 278.042969 77.714844 C 276.832031 77.714844 275.847656 78.695312 275.847656 79.90625 L 275.847656 107.601562 C 275.847656 111.835938 272.402344 115.277344 268.167969 115.277344 C 263.933594 115.277344 260.488281 111.835938 260.488281 107.601562 L 260.488281 79.90625 C 260.488281 78.695312 259.503906 77.714844 258.292969 77.714844 L 195.753906 77.714844 C 194.539062 77.714844 193.558594 78.695312 193.558594 79.90625 L 193.558594 107.601562 C 193.558594 111.835938 190.113281 115.277344 185.878906 115.277344 C 181.640625 115.277344 178.195312 111.835938 178.195312 107.601562 L 178.195312 79.90625 C 178.195312 78.695312 177.214844 77.714844 176.003906 77.714844 L 162.273438 77.714844 C 141.78125 77.714844 124.457031 93.046875 121.976562 113.382812 L 111.351562 200.429688 C 113.070312 200.925781 114.765625 201.425781 116.433594 201.941406 C 121.570312 169.839844 133.730469 138.859375 138.917969 126.605469 C 140.710938 122.363281 145.144531 119.511719 149.941406 119.511719 C 153.058594 119.511719 155.957031 120.679688 158.105469 122.792969 C 175.960938 140.378906 218.425781 185.984375 227.089844 229.511719 C 232.28125 255.617188 230.730469 276.421875 222.476562 291.398438 C 222.664062 292.148438 222.835938 292.894531 222.988281 293.625 C 226.8125 311.917969 222.105469 329.429688 209.003906 345.679688 C 205.753906 349.707031 202.320312 353.246094 198.707031 356.296875 L 315.867188 356.296875 C 327.484375 356.296875 338.558594 351.3125 346.261719 342.617188 C 353.964844 333.921875 357.574219 322.328125 356.164062 310.800781 "/></g></svg>